<mxfile host="app.diagrams.net" modified="2020-12-16T02:29:08.538Z" agent="5.0 (Windows NT 10.0; Win64; x64) AppleWebKit/537.36 (KHTML, like Gecko) Chrome/87.0.4280.88 Safari/537.36" etag="c9Fb0kHQ-SePHPYVz4VH" version="14.0.3" type="github">
  <diagram id="qACfxw4FODvzqwDlVZsI" name="第 1 页">
    <mxGraphModel dx="868" dy="450" grid="1" gridSize="10" guides="1" tooltips="1" connect="1" arrows="1" fold="1" page="1" pageScale="1" pageWidth="827" pageHeight="1169" math="0" shadow="0">
      <root>
        <mxCell id="0" />
        <mxCell id="1" parent="0" />
        <mxCell id="aDlqw50ID4wgKUnIi6hD-9" style="edgeStyle=orthogonalEdgeStyle;rounded=0;orthogonalLoop=1;jettySize=auto;html=1;entryX=0;entryY=0.75;entryDx=0;entryDy=0;" edge="1" parent="1" source="aDlqw50ID4wgKUnIi6hD-1" target="aDlqw50ID4wgKUnIi6hD-2">
          <mxGeometry relative="1" as="geometry" />
        </mxCell>
        <mxCell id="aDlqw50ID4wgKUnIi6hD-10" style="edgeStyle=orthogonalEdgeStyle;rounded=0;orthogonalLoop=1;jettySize=auto;html=1;" edge="1" parent="1" source="aDlqw50ID4wgKUnIi6hD-1" target="aDlqw50ID4wgKUnIi6hD-3">
          <mxGeometry relative="1" as="geometry" />
        </mxCell>
        <mxCell id="aDlqw50ID4wgKUnIi6hD-11" style="edgeStyle=orthogonalEdgeStyle;rounded=0;orthogonalLoop=1;jettySize=auto;html=1;entryX=0;entryY=0.5;entryDx=0;entryDy=0;" edge="1" parent="1" source="aDlqw50ID4wgKUnIi6hD-1" target="aDlqw50ID4wgKUnIi6hD-4">
          <mxGeometry relative="1" as="geometry">
            <mxPoint x="290" y="410" as="targetPoint" />
          </mxGeometry>
        </mxCell>
        <mxCell id="aDlqw50ID4wgKUnIi6hD-1" value="用户X" style="rounded=0;whiteSpace=wrap;html=1;" vertex="1" parent="1">
          <mxGeometry x="80" y="240" width="120" height="60" as="geometry" />
        </mxCell>
        <mxCell id="aDlqw50ID4wgKUnIi6hD-12" style="edgeStyle=orthogonalEdgeStyle;rounded=0;orthogonalLoop=1;jettySize=auto;html=1;entryX=0;entryY=0.75;entryDx=0;entryDy=0;" edge="1" parent="1" source="aDlqw50ID4wgKUnIi6hD-2" target="aDlqw50ID4wgKUnIi6hD-5">
          <mxGeometry relative="1" as="geometry" />
        </mxCell>
        <mxCell id="aDlqw50ID4wgKUnIi6hD-13" style="edgeStyle=orthogonalEdgeStyle;rounded=0;orthogonalLoop=1;jettySize=auto;html=1;entryX=0;entryY=0.5;entryDx=0;entryDy=0;" edge="1" parent="1" source="aDlqw50ID4wgKUnIi6hD-2" target="aDlqw50ID4wgKUnIi6hD-7">
          <mxGeometry relative="1" as="geometry" />
        </mxCell>
        <mxCell id="aDlqw50ID4wgKUnIi6hD-14" style="edgeStyle=orthogonalEdgeStyle;rounded=0;orthogonalLoop=1;jettySize=auto;html=1;entryX=0;entryY=0.5;entryDx=0;entryDy=0;" edge="1" parent="1" source="aDlqw50ID4wgKUnIi6hD-2" target="aDlqw50ID4wgKUnIi6hD-6">
          <mxGeometry relative="1" as="geometry" />
        </mxCell>
        <mxCell id="aDlqw50ID4wgKUnIi6hD-15" style="edgeStyle=orthogonalEdgeStyle;rounded=0;orthogonalLoop=1;jettySize=auto;html=1;entryX=-0.008;entryY=0.617;entryDx=0;entryDy=0;entryPerimeter=0;" edge="1" parent="1" source="aDlqw50ID4wgKUnIi6hD-2" target="aDlqw50ID4wgKUnIi6hD-8">
          <mxGeometry relative="1" as="geometry" />
        </mxCell>
        <mxCell id="aDlqw50ID4wgKUnIi6hD-2" value="合同A" style="rounded=0;whiteSpace=wrap;html=1;" vertex="1" parent="1">
          <mxGeometry x="310" y="100" width="120" height="60" as="geometry" />
        </mxCell>
        <mxCell id="aDlqw50ID4wgKUnIi6hD-3" value="合同B" style="rounded=0;whiteSpace=wrap;html=1;" vertex="1" parent="1">
          <mxGeometry x="310" y="240" width="120" height="60" as="geometry" />
        </mxCell>
        <mxCell id="aDlqw50ID4wgKUnIi6hD-4" value="合同N" style="rounded=0;whiteSpace=wrap;html=1;" vertex="1" parent="1">
          <mxGeometry x="310" y="380" width="120" height="60" as="geometry" />
        </mxCell>
        <mxCell id="aDlqw50ID4wgKUnIi6hD-5" value="第1期" style="rounded=0;whiteSpace=wrap;html=1;" vertex="1" parent="1">
          <mxGeometry x="560" y="30" width="120" height="60" as="geometry" />
        </mxCell>
        <mxCell id="aDlqw50ID4wgKUnIi6hD-6" value="第3期" style="rounded=0;whiteSpace=wrap;html=1;" vertex="1" parent="1">
          <mxGeometry x="560" y="230" width="120" height="60" as="geometry" />
        </mxCell>
        <mxCell id="aDlqw50ID4wgKUnIi6hD-7" value="第2期" style="rounded=0;whiteSpace=wrap;html=1;" vertex="1" parent="1">
          <mxGeometry x="560" y="130" width="120" height="60" as="geometry" />
        </mxCell>
        <mxCell id="aDlqw50ID4wgKUnIi6hD-8" value="第N期" style="rounded=0;whiteSpace=wrap;html=1;" vertex="1" parent="1">
          <mxGeometry x="560" y="340" width="120" height="60" as="geometry" />
        </mxCell>
        <mxCell id="aDlqw50ID4wgKUnIi6hD-16" value="&lt;font style=&quot;font-size: 24px&quot;&gt;....&lt;/font&gt;" style="text;html=1;strokeColor=none;fillColor=none;align=center;verticalAlign=middle;whiteSpace=wrap;rounded=0;" vertex="1" parent="1">
          <mxGeometry x="350" y="320" width="40" height="20" as="geometry" />
        </mxCell>
        <mxCell id="aDlqw50ID4wgKUnIi6hD-18" value="&lt;font style=&quot;font-size: 24px&quot;&gt;....&lt;/font&gt;" style="text;html=1;strokeColor=none;fillColor=none;align=center;verticalAlign=middle;whiteSpace=wrap;rounded=0;" vertex="1" parent="1">
          <mxGeometry x="600" y="290" width="40" height="30" as="geometry" />
        </mxCell>
      </root>
    </mxGraphModel>
  </diagram>
</mxfile>
